  0
SECTION
  2
HEADER
  9
$ACADVER
  1
AC1009
  9
$EXTMIN
 10
0.0
 20
0.0
 30
0.0
  9
$EXTMAX
 10
1000.0
 20
1000.0
 30
0.0
  9
$FILLMODE
 70
 0
  9
$SPLFRAME
 70
 1
  0
ENDSEC
  0
SECTION
  2
TABLES
  0
TABLE
  2
LAYER
 70
1
  0
LAYER
  2
0
 70
     0
 62
     7
  6
CONTINUOUS
  0
ENDTAB
  0
ENDSEC
  0
SECTION
  2
ENTITIES
  0
LINE
  8
0
 62
     0
 10
3.11719
 20
1.5625
 30
0.0
 11
3.11719
 21
1.52279
 31
0.0
  0
LINE
  8
0
 62
     0
 10
3.11719
 20
1.52279
 30
0.0
 11
3.10915
 21
1.4036
 31
0.0
  0
LINE
  8
0
 62
     0
 10
3.10915
 20
1.4036
 30
0.0
 11
3.08556
 21
1.24919
 31
0.0
  0
LINE
  8
0
 62
     0
 10
3.08556
 20
1.24919
 30
0.0
 11
3.04725
 21
1.10021
 31
0.0
  0
LINE
  8
0
 62
     0
 10
3.04725
 20
1.10021
 30
0.0
 11
2.99501
 21
0.957357
 31
0.0
  0
LINE
  8
0
 62
     0
 10
2.99501
 20
0.957357
 30
0.0
 11
2.92953
 21
0.821451
 31
0.0
  0
LINE
  8
0
 62
     0
 10
2.92953
 20
0.821451
 30
0.0
 11
2.85161
 21
0.693306
 31
0.0
  0
LINE
  8
0
 62
     0
 10
2.85161
 20
0.693306
 30
0.0
 11
2.76215
 21
0.573622
 31
0.0
  0
LINE
  8
0
 62
     0
 10
2.76215
 20
0.573622
 30
0.0
 11
2.66178
 21
0.463217
 31
0.0
  0
LINE
  8
0
 62
     0
 10
2.66178
 20
0.463217
 30
0.0
 11
2.55138
 21
0.362847
 31
0.0
  0
LINE
  8
0
 62
     0
 10
2.55138
 20
0.362847
 30
0.0
 11
2.43169
 21
0.273383
 31
0.0
  0
LINE
  8
0
 62
     0
 10
2.43169
 20
0.273383
 30
0.0
 11
2.30354
 21
0.195475
 31
0.0
  0
LINE
  8
0
 62
     0
 10
2.30354
 20
0.195475
 30
0.0
 11
2.16764
 21
0.129991
 31
0.0
  0
LINE
  8
0
 62
     0
 10
2.16764
 20
0.129991
 30
0.0
 11
2.02479
 21
0.0777453
 31
0.0
  0
LINE
  8
0
 62
     0
 10
2.02479
 20
0.0777453
 30
0.0
 11
1.87582
 21
0.0394422
 31
0.0
  0
LINE
  8
0
 62
     0
 10
1.87582
 20
0.0394422
 30
0.0
 11
1.7214
 21
0.0158421
 31
0.0
  0
LINE
  8
0
 62
     0
 10
1.7214
 20
0.0158421
 30
0.0
 11
1.60221
 21
0.0078125
 31
0.0
  0
LINE
  8
0
 62
     0
 10
1.60221
 20
0.0078125
 30
0.0
 11
1.5625
 21
0.0078125
 31
0.0
  0
LINE
  8
0
 62
     0
 10
1.5625
 20
0.0078125
 30
0.0
 11
1.52274
 21
0.0078125
 31
0.0
  0
LINE
  8
0
 62
     0
 10
1.52274
 20
0.0078125
 30
0.0
 11
1.40354
 21
0.0158421
 31
0.0
  0
LINE
  8
0
 62
     0
 10
1.40354
 20
0.0158421
 30
0.0
 11
1.24913
 21
0.0394422
 31
0.0
  0
LINE
  8
0
 62
     0
 10
1.24913
 20
0.0394422
 30
0.0
 11
1.10015
 21
0.0777453
 31
0.0
  0
LINE
  8
0
 62
     0
 10
1.10015
 20
0.0777453
 30
0.0
 11
0.957303
 21
0.129991
 31
0.0
  0
LINE
  8
0
 62
     0
 10
0.957303
 20
0.129991
 30
0.0
 11
0.821397
 21
0.195475
 31
0.0
  0
LINE
  8
0
 62
     0
 10
0.821397
 20
0.195475
 30
0.0
 11
0.693251
 21
0.273383
 31
0.0
  0
LINE
  8
0
 62
     0
 10
0.693251
 20
0.273383
 30
0.0
 11
0.573568
 21
0.362847
 31
0.0
  0
LINE
  8
0
 62
     0
 10
0.573568
 20
0.362847
 30
0.0
 11
0.463162
 21
0.463217
 31
0.0
  0
LINE
  8
0
 62
     0
 10
0.463162
 20
0.463217
 30
0.0
 11
0.362793
 21
0.573622
 31
0.0
  0
LINE
  8
0
 62
     0
 10
0.362793
 20
0.573622
 30
0.0
 11
0.273329
 21
0.693306
 31
0.0
  0
LINE
  8
0
 62
     0
 10
0.273329
 20
0.693306
 30
0.0
 11
0.195421
 21
0.821451
 31
0.0
  0
LINE
  8
0
 62
     0
 10
0.195421
 20
0.821451
 30
0.0
 11
0.129937
 21
0.957357
 31
0.0
  0
LINE
  8
0
 62
     0
 10
0.129937
 20
0.957357
 30
0.0
 11
0.077691
 21
1.10021
 31
0.0
  0
LINE
  8
0
 62
     0
 10
0.077691
 20
1.10021
 30
0.0
 11
0.0393881
 21
1.24919
 31
0.0
  0
LINE
  8
0
 62
     0
 10
0.0393881
 20
1.24919
 30
0.0
 11
0.0157878
 21
1.4036
 31
0.0
  0
LINE
  8
0
 62
     0
 10
0.0157878
 20
1.4036
 30
0.0
 11
0.0078125
 21
1.52279
 31
0.0
  0
LINE
  8
0
 62
     0
 10
0.0078125
 20
1.52279
 30
0.0
 11
0.0078125
 21
1.5625
 31
0.0
  0
LINE
  8
0
 62
     0
 10
0.0078125
 20
1.5625
 30
0.0
 11
0.0078125
 21
1.60226
 31
0.0
  0
LINE
  8
0
 62
     0
 10
0.0078125
 20
1.60226
 30
0.0
 11
0.0157878
 21
1.72146
 31
0.0
  0
LINE
  8
0
 62
     0
 10
0.0157878
 20
1.72146
 30
0.0
 11
0.0393881
 21
1.87588
 31
0.0
  0
LINE
  8
0
 62
     0
 10
0.0393881
 20
1.87588
 30
0.0
 11
0.077691
 21
2.02485
 31
0.0
  0
LINE
  8
0
 62
     0
 10
0.077691
 20
2.02485
 30
0.0
 11
0.129937
 21
2.16769
 31
0.0
  0
LINE
  8
0
 62
     0
 10
0.129937
 20
2.16769
 30
0.0
 11
0.195421
 21
2.3036
 31
0.0
  0
LINE
  8
0
 62
     0
 10
0.195421
 20
2.3036
 30
0.0
 11
0.273329
 21
2.43175
 31
0.0
  0
LINE
  8
0
 62
     0
 10
0.273329
 20
2.43175
 30
0.0
 11
0.362793
 21
2.55143
 31
0.0
  0
LINE
  8
0
 62
     0
 10
0.362793
 20
2.55143
 30
0.0
 11
0.463162
 21
2.66183
 31
0.0
  0
LINE
  8
0
 62
     0
 10
0.463162
 20
2.66183
 30
0.0
 11
0.573568
 21
2.76221
 31
0.0
  0
LINE
  8
0
 62
     0
 10
0.573568
 20
2.76221
 30
0.0
 11
0.693251
 21
2.85167
 31
0.0
  0
LINE
  8
0
 62
     0
 10
0.693251
 20
2.85167
 30
0.0
 11
0.821397
 21
2.92958
 31
0.0
  0
LINE
  8
0
 62
     0
 10
0.821397
 20
2.92958
 30
0.0
 11
0.957303
 21
2.99507
 31
0.0
  0
LINE
  8
0
 62
     0
 10
0.957303
 20
2.99507
 30
0.0
 11
1.10015
 21
3.04731
 31
0.0
  0
LINE
  8
0
 62
     0
 10
1.10015
 20
3.04731
 30
0.0
 11
1.24913
 21
3.08561
 31
0.0
  0
LINE
  8
0
 62
     0
 10
1.24913
 20
3.08561
 30
0.0
 11
1.40354
 21
3.10921
 31
0.0
  0
LINE
  8
0
 62
     0
 10
1.40354
 20
3.10921
 30
0.0
 11
1.52274
 21
3.11719
 31
0.0
  0
LINE
  8
0
 62
     0
 10
1.52274
 20
3.11719
 30
0.0
 11
1.5625
 21
3.11719
 31
0.0
  0
LINE
  8
0
 62
     0
 10
1.5625
 20
3.11719
 30
0.0
 11
1.60221
 21
3.11719
 31
0.0
  0
LINE
  8
0
 62
     0
 10
1.60221
 20
3.11719
 30
0.0
 11
1.7214
 21
3.10921
 31
0.0
  0
LINE
  8
0
 62
     0
 10
1.7214
 20
3.10921
 30
0.0
 11
1.87582
 21
3.08561
 31
0.0
  0
LINE
  8
0
 62
     0
 10
1.87582
 20
3.08561
 30
0.0
 11
2.02479
 21
3.04731
 31
0.0
  0
LINE
  8
0
 62
     0
 10
2.02479
 20
3.04731
 30
0.0
 11
2.16764
 21
2.99507
 31
0.0
  0
LINE
  8
0
 62
     0
 10
2.16764
 20
2.99507
 30
0.0
 11
2.30354
 21
2.92958
 31
0.0
  0
LINE
  8
0
 62
     0
 10
2.30354
 20
2.92958
 30
0.0
 11
2.43169
 21
2.85167
 31
0.0
  0
LINE
  8
0
 62
     0
 10
2.43169
 20
2.85167
 30
0.0
 11
2.55138
 21
2.76221
 31
0.0
  0
LINE
  8
0
 62
     0
 10
2.55138
 20
2.76221
 30
0.0
 11
2.66178
 21
2.66183
 31
0.0
  0
LINE
  8
0
 62
     0
 10
2.66178
 20
2.66183
 30
0.0
 11
2.76215
 21
2.55143
 31
0.0
  0
LINE
  8
0
 62
     0
 10
2.76215
 20
2.55143
 30
0.0
 11
2.85161
 21
2.43175
 31
0.0
  0
LINE
  8
0
 62
     0
 10
2.85161
 20
2.43175
 30
0.0
 11
2.92953
 21
2.3036
 31
0.0
  0
LINE
  8
0
 62
     0
 10
2.92953
 20
2.3036
 30
0.0
 11
2.99501
 21
2.16769
 31
0.0
  0
LINE
  8
0
 62
     0
 10
2.99501
 20
2.16769
 30
0.0
 11
3.04725
 21
2.02485
 31
0.0
  0
LINE
  8
0
 62
     0
 10
3.04725
 20
2.02485
 30
0.0
 11
3.08556
 21
1.87588
 31
0.0
  0
LINE
  8
0
 62
     0
 10
3.08556
 20
1.87588
 30
0.0
 11
3.10915
 21
1.72146
 31
0.0
  0
LINE
  8
0
 62
     0
 10
3.10915
 20
1.72146
 30
0.0
 11
3.11719
 21
1.60226
 31
0.0
  0
LINE
  8
0
 62
     0
 10
3.11719
 20
1.60226
 30
0.0
 11
3.11719
 21
1.5625
 31
0.0
  0
LINE
  8
0
 62
     0
 10
3.03386
 20
1.5625
 30
0.0
 11
3.03386
 21
1.5249
 31
0.0
  0
LINE
  8
0
 62
     0
 10
3.03386
 20
1.5249
 30
0.0
 11
3.02621
 21
1.41211
 31
0.0
  0
LINE
  8
0
 62
     0
 10
3.02621
 20
1.41211
 30
0.0
 11
3.00396
 21
1.266
 31
0.0
  0
LINE
  8
0
 62
     0
 10
3.00396
 20
1.266
 30
0.0
 11
2.96767
 21
1.125
 31
0.0
  0
LINE
  8
0
 62
     0
 10
2.96767
 20
1.125
 30
0.0
 11
2.91818
 21
0.9898
 31
0.0
  0
LINE
  8
0
 62
     0
 10
2.91818
 20
0.9898
 30
0.0
 11
2.85622
 21
0.861165
 31
0.0
  0
LINE
  8
0
 62
     0
 10
2.85622
 20
0.861165
 30
0.0
 11
2.78256
 21
0.739854
 31
0.0
  0
LINE
  8
0
 62
     0
 10
2.78256
 20
0.739854
 30
0.0
 11
2.69786
 21
0.626628
 31
0.0
  0
LINE
  8
0
 62
     0
 10
2.69786
 20
0.626628
 30
0.0
 11
2.60286
 21
0.522136
 31
0.0
  0
LINE
  8
0
 62
     0
 10
2.60286
 20
0.522136
 30
0.0
 11
2.49837
 21
0.427138
 31
0.0
  0
LINE
  8
0
 62
     0
 10
2.49837
 20
0.427138
 30
0.0
 11
2.38514
 21
0.342449
 31
0.0
  0
LINE
  8
0
 62
     0
 10
2.38514
 20
0.342449
 30
0.0
 11
2.26383
 21
0.268772
 31
0.0
  0
LINE
  8
0
 62
     0
 10
2.26383
 20
0.268772
 30
0.0
 11
2.13519
 21
0.206814
 31
0.0
  0
LINE
  8
0
 62
     0
 10
2.13519
 20
0.206814
 30
0.0
 11
2
 21
0.157335
 31
0.0
  0
LINE
  8
0
 62
     0
 10
2
 20
0.157335
 30
0.0
 11
1.859
 21
0.121039
 31
0.0
  0
LINE
  8
0
 62
     0
 10
1.859
 20
0.121039
 30
0.0
 11
1.71289
 21
0.0987956
 31
0.0
  0
LINE
  8
0
 62
     0
 10
1.71289
 20
0.0987956
 30
0.0
 11
1.6001
 21
0.0911458
 31
0.0
  0
LINE
  8
0
 62
     0
 10
1.6001
 20
0.0911458
 30
0.0
 11
1.5625
 21
0.0911458
 31
0.0
  0
LINE
  8
0
 62
     0
 10
1.5625
 20
0.0911458
 30
0.0
 11
1.52485
 21
0.0911458
 31
0.0
  0
LINE
  8
0
 62
     0
 10
1.52485
 20
0.0911458
 30
0.0
 11
1.41206
 21
0.0987956
 31
0.0
  0
LINE
  8
0
 62
     0
 10
1.41206
 20
0.0987956
 30
0.0
 11
1.26595
 21
0.121039
 31
0.0
  0
LINE
  8
0
 62
     0
 10
1.26595
 20
0.121039
 30
0.0
 11
1.12495
 21
0.157335
 31
0.0
  0
LINE
  8
0
 62
     0
 10
1.12495
 20
0.157335
 30
0.0
 11
0.989746
 21
0.206814
 31
0.0
  0
LINE
  8
0
 62
     0
 10
0.989746
 20
0.206814
 30
0.0
 11
0.861111
 21
0.268772
 31
0.0
  0
LINE
  8
0
 62
     0
 10
0.861111
 20
0.268772
 30
0.0
 11
0.7398
 21
0.342449
 31
0.0
  0
LINE
  8
0
 62
     0
 10
0.7398
 20
0.342449
 30
0.0
 11
0.626574
 21
0.427138
 31
0.0
  0
LINE
  8
0
 62
     0
 10
0.626574
 20
0.427138
 30
0.0
 11
0.522081
 21
0.522136
 31
0.0
  0
LINE
  8
0
 62
     0
 10
0.522081
 20
0.522136
 30
0.0
 11
0.427083
 21
0.626628
 31
0.0
  0
LINE
  8
0
 62
     0
 10
0.427083
 20
0.626628
 30
0.0
 11
0.342393
 21
0.739854
 31
0.0
  0
LINE
  8
0
 62
     0
 10
0.342393
 20
0.739854
 30
0.0
 11
0.268718
 21
0.861165
 31
0.0
  0
LINE
  8
0
 62
     0
 10
0.268718
 20
0.861165
 30
0.0
 11
0.20676
 21
0.9898
 31
0.0
  0
LINE
  8
0
 62
     0
 10
0.20676
 20
0.9898
 30
0.0
 11
0.157281
 21
1.125
 31
0.0
  0
LINE
  8
0
 62
     0
 10
0.157281
 20
1.125
 30
0.0
 11
0.120985
 21
1.266
 31
0.0
  0
LINE
  8
0
 62
     0
 10
0.120985
 20
1.266
 30
0.0
 11
0.0987414
 21
1.41211
 31
0.0
  0
LINE
  8
0
 62
     0
 10
0.0987414
 20
1.41211
 30
0.0
 11
0.0911458
 21
1.5249
 31
0.0
  0
LINE
  8
0
 62
     0
 10
0.0911458
 20
1.5249
 30
0.0
 11
0.0911458
 21
1.5625
 31
0.0
  0
LINE
  8
0
 62
     0
 10
0.0911458
 20
1.5625
 30
0.0
 11
0.0911458
 21
1.60015
 31
0.0
  0
LINE
  8
0
 62
     0
 10
0.0911458
 20
1.60015
 30
0.0
 11
0.0987414
 21
1.71294
 31
0.0
  0
LINE
  8
0
 62
     0
 10
0.0987414
 20
1.71294
 30
0.0
 11
0.120985
 21
1.85906
 31
0.0
  0
LINE
  8
0
 62
     0
 10
0.120985
 20
1.85906
 30
0.0
 11
0.157281
 21
2.00006
 31
0.0
  0
LINE
  8
0
 62
     0
 10
0.157281
 20
2.00006
 30
0.0
 11
0.20676
 21
2.13525
 31
0.0
  0
LINE
  8
0
 62
     0
 10
0.20676
 20
2.13525
 30
0.0
 11
0.268718
 21
2.26389
 31
0.0
  0
LINE
  8
0
 62
     0
 10
0.268718
 20
2.26389
 30
0.0
 11
0.342393
 21
2.38519
 31
0.0
  0
LINE
  8
0
 62
     0
 10
0.342393
 20
2.38519
 30
0.0
 11
0.427083
 21
2.49843
 31
0.0
  0
LINE
  8
0
 62
     0
 10
0.427083
 20
2.49843
 30
0.0
 11
0.522081
 21
2.60292
 31
0.0
  0
LINE
  8
0
 62
     0
 10
0.522081
 20
2.60292
 30
0.0
 11
0.626574
 21
2.69792
 31
0.0
  0
LINE
  8
0
 62
     0
 10
0.626574
 20
2.69792
 30
0.0
 11
0.7398
 21
2.78261
 31
0.0
  0
LINE
  8
0
 62
     0
 10
0.7398
 20
2.78261
 30
0.0
 11
0.861111
 21
2.85628
 31
0.0
  0
LINE
  8
0
 62
     0
 10
0.861111
 20
2.85628
 30
0.0
 11
0.989746
 21
2.91824
 31
0.0
  0
LINE
  8
0
 62
     0
 10
0.989746
 20
2.91824
 30
0.0
 11
1.12495
 21
2.96772
 31
0.0
  0
LINE
  8
0
 62
     0
 10
1.12495
 20
2.96772
 30
0.0
 11
1.26595
 21
3.00401
 31
0.0
  0
LINE
  8
0
 62
     0
 10
1.26595
 20
3.00401
 30
0.0
 11
1.41206
 21
3.02626
 31
0.0
  0
LINE
  8
0
 62
     0
 10
1.41206
 20
3.02626
 30
0.0
 11
1.52485
 21
3.03386
 31
0.0
  0
LINE
  8
0
 62
     0
 10
1.52485
 20
3.03386
 30
0.0
 11
1.5625
 21
3.03386
 31
0.0
  0
LINE
  8
0
 62
     0
 10
1.5625
 20
3.03386
 30
0.0
 11
1.6001
 21
3.03386
 31
0.0
  0
LINE
  8
0
 62
     0
 10
1.6001
 20
3.03386
 30
0.0
 11
1.71289
 21
3.02626
 31
0.0
  0
LINE
  8
0
 62
     0
 10
1.71289
 20
3.02626
 30
0.0
 11
1.859
 21
3.00401
 31
0.0
  0
LINE
  8
0
 62
     0
 10
1.859
 20
3.00401
 30
0.0
 11
2
 21
2.96772
 31
0.0
  0
LINE
  8
0
 62
     0
 10
2
 20
2.96772
 30
0.0
 11
2.13519
 21
2.91824
 31
0.0
  0
LINE
  8
0
 62
     0
 10
2.13519
 20
2.91824
 30
0.0
 11
2.26383
 21
2.85628
 31
0.0
  0
LINE
  8
0
 62
     0
 10
2.26383
 20
2.85628
 30
0.0
 11
2.38514
 21
2.78261
 31
0.0
  0
LINE
  8
0
 62
     0
 10
2.38514
 20
2.78261
 30
0.0
 11
2.49837
 21
2.69792
 31
0.0
  0
LINE
  8
0
 62
     0
 10
2.49837
 20
2.69792
 30
0.0
 11
2.60286
 21
2.60292
 31
0.0
  0
LINE
  8
0
 62
     0
 10
2.60286
 20
2.60292
 30
0.0
 11
2.69786
 21
2.49843
 31
0.0
  0
LINE
  8
0
 62
     0
 10
2.69786
 20
2.49843
 30
0.0
 11
2.78256
 21
2.38519
 31
0.0
  0
LINE
  8
0
 62
     0
 10
2.78256
 20
2.38519
 30
0.0
 11
2.85622
 21
2.26389
 31
0.0
  0
LINE
  8
0
 62
     0
 10
2.85622
 20
2.26389
 30
0.0
 11
2.91818
 21
2.13525
 31
0.0
  0
LINE
  8
0
 62
     0
 10
2.91818
 20
2.13525
 30
0.0
 11
2.96767
 21
2.00006
 31
0.0
  0
LINE
  8
0
 62
     0
 10
2.96767
 20
2.00006
 30
0.0
 11
3.00396
 21
1.85906
 31
0.0
  0
LINE
  8
0
 62
     0
 10
3.00396
 20
1.85906
 30
0.0
 11
3.02621
 21
1.71294
 31
0.0
  0
LINE
  8
0
 62
     0
 10
3.02621
 20
1.71294
 30
0.0
 11
3.03386
 21
1.60015
 31
0.0
  0
LINE
  8
0
 62
     0
 10
3.03386
 20
1.60015
 30
0.0
 11
3.03386
 21
1.5625
 31
0.0
  0
LINE
  8
0
 62
     0
 10
2.95053
 20
1.5625
 30
0.0
 11
2.95053
 21
1.52707
 31
0.0
  0
LINE
  8
0
 62
     0
 10
2.95053
 20
1.52707
 30
0.0
 11
2.94331
 21
1.42063
 31
0.0
  0
LINE
  8
0
 62
     0
 10
2.94331
 20
1.42063
 30
0.0
 11
2.92231
 21
1.28277
 31
0.0
  0
LINE
  8
0
 62
     0
 10
2.92231
 20
1.28277
 30
0.0
 11
2.88807
 21
1.14974
 31
0.0
  0
LINE
  8
0
 62
     0
 10
2.88807
 20
1.14974
 30
0.0
 11
2.84142
 21
1.02224
 31
0.0
  0
LINE
  8
0
 62
     0
 10
2.84142
 20
1.02224
 30
0.0
 11
2.78299
 21
0.900879
 31
0.0
  0
LINE
  8
0
 62
     0
 10
2.78299
 20
0.900879
 30
0.0
 11
2.71343
 21
0.786458
 31
0.0
  0
LINE
  8
0
 62
     0
 10
2.71343
 20
0.786458
 30
0.0
 11
2.63351
 21
0.679633
 31
0.0
  0
LINE
  8
0
 62
     0
 10
2.63351
 20
0.679633
 30
0.0
 11
2.54394
 21
0.581054
 31
0.0
  0
LINE
  8
0
 62
     0
 10
2.54394
 20
0.581054
 30
0.0
 11
2.44536
 21
0.491482
 31
0.0
  0
LINE
  8
0
 62
     0
 10
2.44536
 20
0.491482
 30
0.0
 11
2.33854
 21
0.411567
 31
0.0
  0
LINE
  8
0
 62
     0
 10
2.33854
 20
0.411567
 30
0.0
 11
2.22412
 21
0.342014
 31
0.0
  0
LINE
  8
0
 62
     0
 10
2.22412
 20
0.342014
 30
0.0
 11
2.10275
 21
0.283583
 31
0.0
  0
LINE
  8
0
 62
     0
 10
2.10275
 20
0.283583
 30
0.0
 11
1.97526
 21
0.236925
 31
0.0
  0
LINE
  8
0
 62
     0
 10
1.97526
 20
0.236925
 30
0.0
 11
1.84224
 21
0.202692
 31
0.0
  0
LINE
  8
0
 62
     0
 10
1.84224
 20
0.202692
 30
0.0
 11
1.70437
 21
0.181694
 31
0.0
  0
LINE
  8
0
 62
     0
 10
1.70437
 20
0.181694
 30
0.0
 11
1.59793
 21
0.174479
 31
0.0
  0
LINE
  8
0
 62
     0
 10
1.59793
 20
0.174479
 30
0.0
 11
1.5625
 21
0.174479
 31
0.0
  0
LINE
  8
0
 62
     0
 10
1.5625
 20
0.174479
 30
0.0
 11
1.52701
 21
0.174479
 31
0.0
  0
LINE
  8
0
 62
     0
 10
1.52701
 20
0.174479
 30
0.0
 11
1.42057
 21
0.181694
 31
0.0
  0
LINE
  8
0
 62
     0
 10
1.42057
 20
0.181694
 30
0.0
 11
1.28272
 21
0.202692
 31
0.0
  0
LINE
  8
0
 62
     0
 10
1.28272
 20
0.202692
 30
0.0
 11
1.14968
 21
0.236925
 31
0.0
  0
LINE
  8
0
 62
     0
 10
1.14968
 20
0.236925
 30
0.0
 11
1.02219
 21
0.283583
 31
0.0
  0
LINE
  8
0
 62
     0
 10
1.02219
 20
0.283583
 30
0.0
 11
0.900825
 21
0.342014
 31
0.0
  0
LINE
  8
0
 62
     0
 10
0.900825
 20
0.342014
 30
0.0
 11
0.786404
 21
0.411567
 31
0.0
  0
LINE
  8
0
 62
     0
 10
0.786404
 20
0.411567
 30
0.0
 11
0.679579
 21
0.491482
 31
0.0
  0
LINE
  8
0
 62
     0
 10
0.679579
 20
0.491482
 30
0.0
 11
0.581
 21
0.581054
 31
0.0
  0
LINE
  8
0
 62
     0
 10
0.581
 20
0.581054
 30
0.0
 11
0.491428
 21
0.679633
 31
0.0
  0
LINE
  8
0
 62
     0
 10
0.491428
 20
0.679633
 30
0.0
 11
0.411513
 21
0.786458
 31
0.0
  0
LINE
  8
0
 62
     0
 10
0.411513
 20
0.786458
 30
0.0
 11
0.34196
 21
0.900879
 31
0.0
  0
LINE
  8
0
 62
     0
 10
0.34196
 20
0.900879
 30
0.0
 11
0.283529
 21
1.02224
 31
0.0
  0
LINE
  8
0
 62
     0
 10
0.283529
 20
1.02224
 30
0.0
 11
0.236871
 21
1.14974
 31
0.0
  0
LINE
  8
0
 62
     0
 10
0.236871
 20
1.14974
 30
0.0
 11
0.202636
 21
1.28277
 31
0.0
  0
LINE
  8
0
 62
     0
 10
0.202636
 20
1.28277
 30
0.0
 11
0.18164
 21
1.42063
 31
0.0
  0
LINE
  8
0
 62
     0
 10
0.18164
 20
1.42063
 30
0.0
 11
0.174479
 21
1.52707
 31
0.0
  0
LINE
  8
0
 62
     0
 10
0.174479
 20
1.52707
 30
0.0
 11
0.174479
 21
1.5625
 31
0.0
  0
LINE
  8
0
 62
     0
 10
0.174479
 20
1.5625
 30
0.0
 11
0.174479
 21
1.59799
 31
0.0
  0
LINE
  8
0
 62
     0
 10
0.174479
 20
1.59799
 30
0.0
 11
0.18164
 21
1.70443
 31
0.0
  0
LINE
  8
0
 62
     0
 10
0.18164
 20
1.70443
 30
0.0
 11
0.202636
 21
1.84229
 31
0.0
  0
LINE
  8
0
 62
     0
 10
0.202636
 20
1.84229
 30
0.0
 11
0.236871
 21
1.97532
 31
0.0
  0
LINE
  8
0
 62
     0
 10
0.236871
 20
1.97532
 30
0.0
 11
0.283529
 21
2.10281
 31
0.0
  0
LINE
  8
0
 62
     0
 10
0.283529
 20
2.10281
 30
0.0
 11
0.34196
 21
2.22418
 31
0.0
  0
LINE
  8
0
 62
     0
 10
0.34196
 20
2.22418
 30
0.0
 11
0.411513
 21
2.3386
 31
0.0
  0
LINE
  8
0
 62
     0
 10
0.411513
 20
2.3386
 30
0.0
 11
0.491428
 21
2.44542
 31
0.0
  0
LINE
  8
0
 62
     0
 10
0.491428
 20
2.44542
 30
0.0
 11
0.581
 21
2.544
 31
0.0
  0
LINE
  8
0
 62
     0
 10
0.581
 20
2.544
 30
0.0
 11
0.679579
 21
2.63357
 31
0.0
  0
LINE
  8
0
 62
     0
 10
0.679579
 20
2.63357
 30
0.0
 11
0.786404
 21
2.71349
 31
0.0
  0
LINE
  8
0
 62
     0
 10
0.786404
 20
2.71349
 30
0.0
 11
0.900825
 21
2.78304
 31
0.0
  0
LINE
  8
0
 62
     0
 10
0.900825
 20
2.78304
 30
0.0
 11
1.02219
 21
2.84147
 31
0.0
  0
LINE
  8
0
 62
     0
 10
1.02219
 20
2.84147
 30
0.0
 11
1.14968
 21
2.88813
 31
0.0
  0
LINE
  8
0
 62
     0
 10
1.14968
 20
2.88813
 30
0.0
 11
1.28272
 21
2.92236
 31
0.0
  0
LINE
  8
0
 62
     0
 10
1.28272
 20
2.92236
 30
0.0
 11
1.42057
 21
2.94336
 31
0.0
  0
LINE
  8
0
 62
     0
 10
1.42057
 20
2.94336
 30
0.0
 11
1.52701
 21
2.95053
 31
0.0
  0
LINE
  8
0
 62
     0
 10
1.52701
 20
2.95053
 30
0.0
 11
1.5625
 21
2.95053
 31
0.0
  0
LINE
  8
0
 62
     0
 10
1.5625
 20
2.95053
 30
0.0
 11
1.59793
 21
2.95053
 31
0.0
  0
LINE
  8
0
 62
     0
 10
1.59793
 20
2.95053
 30
0.0
 11
1.70437
 21
2.94336
 31
0.0
  0
LINE
  8
0
 62
     0
 10
1.70437
 20
2.94336
 30
0.0
 11
1.84224
 21
2.92236
 31
0.0
  0
LINE
  8
0
 62
     0
 10
1.84224
 20
2.92236
 30
0.0
 11
1.97526
 21
2.88813
 31
0.0
  0
LINE
  8
0
 62
     0
 10
1.97526
 20
2.88813
 30
0.0
 11
2.10275
 21
2.84147
 31
0.0
  0
LINE
  8
0
 62
     0
 10
2.10275
 20
2.84147
 30
0.0
 11
2.22412
 21
2.78304
 31
0.0
  0
LINE
  8
0
 62
     0
 10
2.22412
 20
2.78304
 30
0.0
 11
2.33854
 21
2.71349
 31
0.0
  0
LINE
  8
0
 62
     0
 10
2.33854
 20
2.71349
 30
0.0
 11
2.44536
 21
2.63357
 31
0.0
  0
LINE
  8
0
 62
     0
 10
2.44536
 20
2.63357
 30
0.0
 11
2.54394
 21
2.544
 31
0.0
  0
LINE
  8
0
 62
     0
 10
2.54394
 20
2.544
 30
0.0
 11
2.63351
 21
2.44542
 31
0.0
  0
LINE
  8
0
 62
     0
 10
2.63351
 20
2.44542
 30
0.0
 11
2.71343
 21
2.3386
 31
0.0
  0
LINE
  8
0
 62
     0
 10
2.71343
 20
2.3386
 30
0.0
 11
2.78299
 21
2.22418
 31
0.0
  0
LINE
  8
0
 62
     0
 10
2.78299
 20
2.22418
 30
0.0
 11
2.84142
 21
2.10281
 31
0.0
  0
LINE
  8
0
 62
     0
 10
2.84142
 20
2.10281
 30
0.0
 11
2.88807
 21
1.97532
 31
0.0
  0
LINE
  8
0
 62
     0
 10
2.88807
 20
1.97532
 30
0.0
 11
2.92231
 21
1.84229
 31
0.0
  0
LINE
  8
0
 62
     0
 10
2.92231
 20
1.84229
 30
0.0
 11
2.94331
 21
1.70443
 31
0.0
  0
LINE
  8
0
 62
     0
 10
2.94331
 20
1.70443
 30
0.0
 11
2.95053
 21
1.59799
 31
0.0
  0
LINE
  8
0
 62
     0
 10
2.95053
 20
1.59799
 30
0.0
 11
2.95053
 21
1.5625
 31
0.0
  0
LINE
  8
0
 62
     0
 10
1.38542
 20
2.60417
 30
0.0
 11
1.38542
 21
2.59608
 31
0.0
  0
LINE
  8
0
 62
     0
 10
1.38542
 20
2.59608
 30
0.0
 11
1.37885
 21
2.57178
 31
0.0
  0
LINE
  8
0
 62
     0
 10
1.37885
 20
2.57178
 30
0.0
 11
1.361
 21
2.54525
 31
0.0
  0
LINE
  8
0
 62
     0
 10
1.361
 20
2.54525
 30
0.0
 11
1.33447
 21
2.5274
 31
0.0
  0
LINE
  8
0
 62
     0
 10
1.33447
 20
2.5274
 30
0.0
 11
1.31017
 21
2.52083
 31
0.0
  0
LINE
  8
0
 62
     0
 10
1.31017
 20
2.52083
 30
0.0
 11
1.30208
 21
2.52083
 31
0.0
  0
LINE
  8
0
 62
     0
 10
1.30208
 20
2.52083
 30
0.0
 11
1.29395
 21
2.52083
 31
0.0
  0
LINE
  8
0
 62
     0
 10
1.29395
 20
2.52083
 30
0.0
 11
1.26964
 21
2.5274
 31
0.0
  0
LINE
  8
0
 62
     0
 10
1.26964
 20
2.5274
 30
0.0
 11
1.24316
 21
2.54525
 31
0.0
  0
LINE
  8
0
 62
     0
 10
1.24316
 20
2.54525
 30
0.0
 11
1.22526
 21
2.57178
 31
0.0
  0
LINE
  8
0
 62
     0
 10
1.22526
 20
2.57178
 30
0.0
 11
1.21875
 21
2.59608
 31
0.0
  0
LINE
  8
0
 62
     0
 10
1.21875
 20
2.59608
 30
0.0
 11
1.21875
 21
2.60417
 31
0.0
  0
LINE
  8
0
 62
     0
 10
1.21875
 20
2.60417
 30
0.0
 11
1.21875
 21
2.61231
 31
0.0
  0
LINE
  8
0
 62
     0
 10
1.21875
 20
2.61231
 30
0.0
 11
1.22526
 21
2.63661
 31
0.0
  0
LINE
  8
0
 62
     0
 10
1.22526
 20
2.63661
 30
0.0
 11
1.24316
 21
2.66308
 31
0.0
  0
LINE
  8
0
 62
     0
 10
1.24316
 20
2.66308
 30
0.0
 11
1.26964
 21
2.68099
 31
0.0
  0
LINE
  8
0
 62
     0
 10
1.26964
 20
2.68099
 30
0.0
 11
1.29395
 21
2.6875
 31
0.0
  0
LINE
  8
0
 62
     0
 10
1.29395
 20
2.6875
 30
0.0
 11
1.30208
 21
2.6875
 31
0.0
  0
LINE
  8
0
 62
     0
 10
1.30208
 20
2.6875
 30
0.0
 11
1.31017
 21
2.6875
 31
0.0
  0
LINE
  8
0
 62
     0
 10
1.31017
 20
2.6875
 30
0.0
 11
1.33447
 21
2.68099
 31
0.0
  0
LINE
  8
0
 62
     0
 10
1.33447
 20
2.68099
 30
0.0
 11
1.361
 21
2.66308
 31
0.0
  0
LINE
  8
0
 62
     0
 10
1.361
 20
2.66308
 30
0.0
 11
1.37885
 21
2.63661
 31
0.0
  0
LINE
  8
0
 62
     0
 10
1.37885
 20
2.63661
 30
0.0
 11
1.38542
 21
2.61231
 31
0.0
  0
LINE
  8
0
 62
     0
 10
1.38542
 20
2.61231
 30
0.0
 11
1.38542
 21
2.60417
 31
0.0
  0
LINE
  8
0
 62
     0
 10
1.64583
 20
2.65625
 30
0.0
 11
1.64583
 21
2.64817
 31
0.0
  0
LINE
  8
0
 62
     0
 10
1.64583
 20
2.64817
 30
0.0
 11
1.63926
 21
2.62386
 31
0.0
  0
LINE
  8
0
 62
     0
 10
1.63926
 20
2.62386
 30
0.0
 11
1.62142
 21
2.59733
 31
0.0
  0
LINE
  8
0
 62
     0
 10
1.62142
 20
2.59733
 30
0.0
 11
1.59489
 21
2.57949
 31
0.0
  0
LINE
  8
0
 62
     0
 10
1.59489
 20
2.57949
 30
0.0
 11
1.57058
 21
2.57292
 31
0.0
  0
LINE
  8
0
 62
     0
 10
1.57058
 20
2.57292
 30
0.0
 11
1.5625
 21
2.57292
 31
0.0
  0
LINE
  8
0
 62
     0
 10
1.5625
 20
2.57292
 30
0.0
 11
1.55436
 21
2.57292
 31
0.0
  0
LINE
  8
0
 62
     0
 10
1.55436
 20
2.57292
 30
0.0
 11
1.53006
 21
2.57949
 31
0.0
  0
LINE
  8
0
 62
     0
 10
1.53006
 20
2.57949
 30
0.0
 11
1.50358
 21
2.59733
 31
0.0
  0
LINE
  8
0
 62
     0
 10
1.50358
 20
2.59733
 30
0.0
 11
1.48568
 21
2.62386
 31
0.0
  0
LINE
  8
0
 62
     0
 10
1.48568
 20
2.62386
 30
0.0
 11
1.47917
 21
2.64817
 31
0.0
  0
LINE
  8
0
 62
     0
 10
1.47917
 20
2.64817
 30
0.0
 11
1.47917
 21
2.65625
 31
0.0
  0
LINE
  8
0
 62
     0
 10
1.47917
 20
2.65625
 30
0.0
 11
1.47917
 21
2.66439
 31
0.0
  0
LINE
  8
0
 62
     0
 10
1.47917
 20
2.66439
 30
0.0
 11
1.48568
 21
2.68869
 31
0.0
  0
LINE
  8
0
 62
     0
 10
1.48568
 20
2.68869
 30
0.0
 11
1.50358
 21
2.71517
 31
0.0
  0
LINE
  8
0
 62
     0
 10
1.50358
 20
2.71517
 30
0.0
 11
1.53006
 21
2.73307
 31
0.0
  0
LINE
  8
0
 62
     0
 10
1.53006
 20
2.73307
 30
0.0
 11
1.55436
 21
2.73958
 31
0.0
  0
LINE
  8
0
 62
     0
 10
1.55436
 20
2.73958
 30
0.0
 11
1.5625
 21
2.73958
 31
0.0
  0
LINE
  8
0
 62
     0
 10
1.5625
 20
2.73958
 30
0.0
 11
1.57058
 21
2.73958
 31
0.0
  0
LINE
  8
0
 62
     0
 10
1.57058
 20
2.73958
 30
0.0
 11
1.59489
 21
2.73307
 31
0.0
  0
LINE
  8
0
 62
     0
 10
1.59489
 20
2.73307
 30
0.0
 11
1.62142
 21
2.71517
 31
0.0
  0
LINE
  8
0
 62
     0
 10
1.62142
 20
2.71517
 30
0.0
 11
1.63926
 21
2.68869
 31
0.0
  0
LINE
  8
0
 62
     0
 10
1.63926
 20
2.68869
 30
0.0
 11
1.64583
 21
2.66439
 31
0.0
  0
LINE
  8
0
 62
     0
 10
1.64583
 20
2.66439
 30
0.0
 11
1.64583
 21
2.65625
 31
0.0
  0
LINE
  8
0
 62
     0
 10
1.90625
 20
2.60417
 30
0.0
 11
1.90625
 21
2.59608
 31
0.0
  0
LINE
  8
0
 62
     0
 10
1.90625
 20
2.59608
 30
0.0
 11
1.89968
 21
2.57178
 31
0.0
  0
LINE
  8
0
 62
     0
 10
1.89968
 20
2.57178
 30
0.0
 11
1.88183
 21
2.54525
 31
0.0
  0
LINE
  8
0
 62
     0
 10
1.88183
 20
2.54525
 30
0.0
 11
1.85531
 21
2.5274
 31
0.0
  0
LINE
  8
0
 62
     0
 10
1.85531
 20
2.5274
 30
0.0
 11
1.831
 21
2.52083
 31
0.0
  0
LINE
  8
0
 62
     0
 10
1.831
 20
2.52083
 30
0.0
 11
1.82292
 21
2.52083
 31
0.0
  0
LINE
  8
0
 62
     0
 10
1.82292
 20
2.52083
 30
0.0
 11
1.81478
 21
2.52083
 31
0.0
  0
LINE
  8
0
 62
     0
 10
1.81478
 20
2.52083
 30
0.0
 11
1.79047
 21
2.5274
 31
0.0
  0
LINE
  8
0
 62
     0
 10
1.79047
 20
2.5274
 30
0.0
 11
1.764
 21
2.54525
 31
0.0
  0
LINE
  8
0
 62
     0
 10
1.764
 20
2.54525
 30
0.0
 11
1.7461
 21
2.57178
 31
0.0
  0
LINE
  8
0
 62
     0
 10
1.7461
 20
2.57178
 30
0.0
 11
1.73958
 21
2.59608
 31
0.0
  0
LINE
  8
0
 62
     0
 10
1.73958
 20
2.59608
 30
0.0
 11
1.73958
 21
2.60417
 31
0.0
  0
LINE
  8
0
 62
     0
 10
1.73958
 20
2.60417
 30
0.0
 11
1.73958
 21
2.61231
 31
0.0
  0
LINE
  8
0
 62
     0
 10
1.73958
 20
2.61231
 30
0.0
 11
1.7461
 21
2.63661
 31
0.0
  0
LINE
  8
0
 62
     0
 10
1.7461
 20
2.63661
 30
0.0
 11
1.764
 21
2.66308
 31
0.0
  0
LINE
  8
0
 62
     0
 10
1.764
 20
2.66308
 30
0.0
 11
1.79047
 21
2.68099
 31
0.0
  0
LINE
  8
0
 62
     0
 10
1.79047
 20
2.68099
 30
0.0
 11
1.81478
 21
2.6875
 31
0.0
  0
LINE
  8
0
 62
     0
 10
1.81478
 20
2.6875
 30
0.0
 11
1.82292
 21
2.6875
 31
0.0
  0
LINE
  8
0
 62
     0
 10
1.82292
 20
2.6875
 30
0.0
 11
1.831
 21
2.6875
 31
0.0
  0
LINE
  8
0
 62
     0
 10
1.831
 20
2.6875
 30
0.0
 11
1.85531
 21
2.68099
 31
0.0
  0
LINE
  8
0
 62
     0
 10
1.85531
 20
2.68099
 30
0.0
 11
1.88183
 21
2.66308
 31
0.0
  0
LINE
  8
0
 62
     0
 10
1.88183
 20
2.66308
 30
0.0
 11
1.89968
 21
2.63661
 31
0.0
  0
LINE
  8
0
 62
     0
 10
1.89968
 20
2.63661
 30
0.0
 11
1.90625
 21
2.61231
 31
0.0
  0
LINE
  8
0
 62
     0
 10
1.90625
 20
2.61231
 30
0.0
 11
1.90625
 21
2.60417
 31
0.0
  0
LINE
  8
0
 62
     0
 10
1.5625
 20
2.39583
 30
0.0
 11
1.4375
 21
0.416667
 31
0.0
  0
LINE
  8
0
 62
     0
 10
1.4375
 20
0.416667
 30
0.0
 11
1.6875
 21
0.416667
 31
0.0
  0
LINE
  8
0
 62
     0
 10
1.6875
 20
0.416667
 30
0.0
 11
1.5625
 21
2.39583
 31
0.0
  0
LINE
  8
0
 62
     0
 10
1.38542
 20
2.39583
 30
0.0
 11
0.65625
 21
0.833333
 31
0.0
  0
LINE
  8
0
 62
     0
 10
0.65625
 20
0.833333
 30
0.0
 11
0.8125
 21
0.625
 31
0.0
  0
LINE
  8
0
 62
     0
 10
0.8125
 20
0.625
 30
0.0
 11
1.38542
 21
2.39583
 31
0.0
  0
LINE
  8
0
 62
     0
 10
1.73958
 20
2.39583
 30
0.0
 11
2.46875
 21
0.833333
 31
0.0
  0
LINE
  8
0
 62
     0
 10
2.46875
 20
0.833333
 30
0.0
 11
2.3125
 21
0.625
 31
0.0
  0
LINE
  8
0
 62
     0
 10
2.3125
 20
0.625
 30
0.0
 11
1.73958
 21
2.39583
 31
0.0
  0
ENDSEC
  0
EOF
